<svg width="50" height="50" viewBox="0 0 50 50" fill="none" xmlns="http://www.w3.org/2000/svg">
<path d="M50 25C50 38.8069 38.8069 50 25 50C11.1944 50 0 38.8069 0 25C0 11.1944 11.1944 0 25 0C38.8069 0 50 11.1944 50 25Z" fill="#FFCC4D"/>
<path d="M25 45.8333C28.8353 45.8333 31.9444 42.1024 31.9444 37.5C31.9444 32.8976 28.8353 29.1667 25 29.1667C21.1647 29.1667 18.0555 32.8976 18.0555 37.5C18.0555 42.1024 21.1647 45.8333 25 45.8333Z" fill="#664500"/>
<path d="M8.33195 15.2778C8.04306 15.2778 7.75001 15.1875 7.50001 15C6.88612 14.5403 6.76251 13.6694 7.22223 13.0556C11.7528 7.01389 17.8 6.94444 18.0556 6.94444C18.8222 6.94444 19.4444 7.56666 19.4444 8.33333C19.4444 9.09861 18.8264 9.71944 18.0611 9.72222C17.8458 9.725 13.1056 9.84167 9.44445 14.7222C9.17223 15.0861 8.75417 15.2778 8.33195 15.2778ZM41.6681 15.2778C41.2444 15.2778 40.8292 15.0861 40.5556 14.7222C36.8889 9.83194 32.1375 9.725 31.9361 9.72222C31.1722 9.71389 30.5556 9.08889 30.5597 8.32639C30.5639 7.56111 31.1806 6.94444 31.9444 6.94444C32.2 6.94444 38.2458 7.01389 42.7778 13.0556C43.2389 13.6694 43.1139 14.5403 42.5 15C42.25 15.1875 41.9583 15.2778 41.6681 15.2778Z" fill="#664500"/>
<path d="M25 31.9444C22.6986 31.9444 20.8333 34.4306 20.8333 37.5H29.1667C29.1667 34.4306 27.3014 31.9444 25 31.9444Z" fill="#F5F8FA"/>
<path d="M16.6667 25C18.5843 25 20.1389 22.8236 20.1389 20.1389C20.1389 17.4542 18.5843 15.2778 16.6667 15.2778C14.749 15.2778 13.1945 17.4542 13.1945 20.1389C13.1945 22.8236 14.749 25 16.6667 25Z" fill="#664500"/>
<path d="M33.3333 25C35.251 25 36.8056 22.8236 36.8056 20.1389C36.8056 17.4542 35.251 15.2778 33.3333 15.2778C31.4157 15.2778 29.8611 17.4542 29.8611 20.1389C29.8611 22.8236 31.4157 25 33.3333 25Z" fill="#664500"/>
</svg>
